<svg xmlns="http://www.w3.org/2000/svg" xmlns:xlink="http://www.w3.org/1999/xlink" preserveAspectRatio="xMidYMid" width="509" height="69" viewBox="0 0 509 69">
  <defs>
    <style>

      .cls-2 {
        fill: #777777;
      }
    </style>
  </defs>
  <path d="M506.592,66.268 C506.294,66.268 505.669,66.202 504.716,66.071 C502.333,65.745 500.218,65.581 498.370,65.581 C497.118,65.581 496.255,65.619 495.779,65.696 C495.779,65.696 492.919,66.153 492.919,66.153 C492.740,66.153 492.442,66.191 492.026,66.268 C491.668,66.268 491.459,66.268 491.400,66.268 C490.268,66.268 489.702,65.933 489.702,65.268 C489.702,64.298 490.393,63.814 491.778,63.814 C491.958,63.814 492.078,63.814 492.139,63.814 C492.139,63.814 494.215,63.814 494.215,63.814 C494.215,63.814 494.756,63.814 494.756,63.814 C496.139,63.814 497.012,63.355 497.373,62.436 C497.554,61.912 497.703,60.698 497.825,58.795 C497.825,58.795 497.825,55.155 497.825,55.155 C497.825,55.155 497.825,40.396 497.825,40.396 C497.825,34.362 497.464,30.098 496.742,27.604 C495.537,23.472 492.861,21.406 488.709,21.406 C484.617,21.406 481.429,23.627 479.143,28.065 C477.638,31.004 476.887,35.281 476.887,40.896 C476.887,40.896 476.887,56.370 476.887,56.370 C476.887,59.244 476.977,60.974 477.157,61.560 C477.578,63.063 478.721,63.814 480.587,63.814 C480.948,63.814 481.248,63.814 481.489,63.814 C481.729,63.814 482.060,63.814 482.482,63.814 C482.963,63.814 483.234,63.814 483.294,63.814 C484.437,63.814 485.009,64.272 485.009,65.188 C485.009,65.907 484.527,66.268 483.565,66.268 C483.385,66.268 482.843,66.193 481.941,66.044 C481.941,66.044 479.143,65.594 479.143,65.594 C478.661,65.521 477.638,65.482 476.074,65.482 C474.089,65.482 471.952,65.679 469.667,66.071 C468.884,66.202 468.313,66.268 467.952,66.268 C466.928,66.268 466.418,65.904 466.418,65.177 C466.418,64.269 467.018,63.814 468.223,63.814 C468.342,63.814 468.553,63.814 468.854,63.814 C469.155,63.814 469.426,63.814 469.667,63.814 C470.389,63.814 470.899,63.814 471.201,63.814 C472.584,63.814 473.487,63.389 473.908,62.539 C474.148,61.951 474.299,60.775 474.360,59.011 C474.360,59.011 474.360,56.267 474.360,56.267 C474.360,56.267 474.360,9.810 474.360,9.810 C474.360,6.544 474.165,4.519 473.779,3.734 C473.392,2.950 472.335,2.558 470.609,2.558 C470.073,2.558 469.478,2.581 468.823,2.623 C468.465,2.645 468.079,2.656 467.663,2.656 C466.471,2.656 465.876,2.199 465.876,1.281 C465.876,0.432 466.387,0.005 467.410,0.005 C467.410,0.005 468.313,0.005 468.313,0.005 C468.733,0.005 469.335,0.071 470.118,0.202 C470.899,0.333 471.501,0.398 471.923,0.398 C472.284,0.398 472.855,0.333 473.638,0.202 C474.419,0.071 474.991,0.005 475.352,0.005 C476.375,0.005 476.887,0.856 476.887,2.558 C476.887,2.558 476.887,29.357 476.887,29.357 C479.112,22.485 483.083,19.050 488.800,19.050 C493.432,19.050 496.711,21.177 498.637,25.430 C499.659,27.656 500.171,32.368 500.171,39.566 C500.171,39.566 500.171,58.218 500.171,58.218 C500.232,60.574 500.384,62.014 500.628,62.537 C501.054,63.519 502.119,64.010 503.823,64.010 C503.823,64.010 504.554,64.010 504.554,64.010 C505.101,63.879 505.679,63.814 506.288,63.814 C507.384,63.814 507.933,64.257 507.933,65.143 C507.933,65.892 507.486,66.268 506.592,66.268 ZM440.877,67.151 C437.326,67.151 435.552,64.468 435.552,59.102 C435.552,59.102 435.552,56.942 435.552,56.942 C434.048,60.608 432.363,63.225 430.498,64.795 C428.633,66.366 426.226,67.151 423.278,67.151 C419.969,67.151 417.322,66.005 415.336,63.715 C413.351,61.425 412.358,58.382 412.358,54.586 C412.358,46.472 416.268,41.988 424.091,41.137 C428.662,40.614 431.626,39.780 432.980,38.634 C434.334,37.489 435.011,35.215 435.011,31.811 C435.011,28.539 434.199,25.987 432.574,24.154 C430.950,22.323 428.693,21.406 425.805,21.406 C423.398,21.406 421.307,22.191 419.533,23.762 C417.758,25.332 416.871,27.165 416.871,29.259 C416.871,29.783 416.990,30.044 417.232,30.044 C417.954,29.652 418.495,29.455 418.856,29.455 C420.540,29.455 421.383,30.503 421.383,32.597 C421.383,33.644 421.067,34.528 420.435,35.247 C419.804,35.968 419.006,36.327 418.044,36.327 C416.961,36.327 416.058,35.787 415.336,34.707 C414.614,33.627 414.253,32.270 414.253,30.633 C414.253,27.361 415.366,24.613 417.593,22.387 C419.818,20.163 422.586,19.050 425.896,19.050 C430.769,19.050 434.168,20.948 436.094,24.743 C437.297,27.099 437.899,31.354 437.899,37.505 C437.899,37.505 437.899,58.022 437.899,58.022 C437.899,62.603 438.862,64.893 440.791,64.893 C442.894,64.893 443.946,62.145 443.946,56.647 C443.946,56.387 443.946,55.928 443.946,55.273 C443.946,54.554 443.946,53.932 443.946,53.408 C443.946,53.408 443.946,53.212 443.946,53.212 C443.946,51.837 444.397,51.150 445.299,51.150 C446.202,51.150 446.653,51.903 446.653,53.408 C446.653,58.841 446.261,62.488 445.480,64.353 C444.697,66.219 443.163,67.151 440.877,67.151 ZM435.552,39.174 C433.867,41.269 431.401,42.511 428.152,42.904 C428.152,42.904 424.361,43.395 424.361,43.395 C418.044,44.180 414.885,47.812 414.885,54.291 C414.885,57.433 415.697,59.985 417.322,61.948 C418.946,63.912 421.081,64.893 423.730,64.893 C428.603,64.893 431.972,62.309 433.838,57.138 C434.980,53.997 435.552,49.908 435.552,44.867 C435.552,44.867 435.552,39.174 435.552,39.174 ZM387.720,66.170 C387.118,66.170 386.577,66.104 386.096,65.973 C383.809,65.712 381.764,65.581 379.959,65.581 C378.274,65.581 377.040,65.637 376.259,65.749 C376.259,65.749 373.912,66.085 373.912,66.085 C373.551,66.140 373.129,66.170 372.649,66.170 C371.444,66.170 370.844,65.745 370.844,64.893 C370.844,64.044 371.354,63.617 372.378,63.617 C372.979,63.617 373.671,63.617 374.454,63.617 C374.573,63.617 374.754,63.617 374.995,63.617 C375.295,63.617 375.505,63.617 375.627,63.617 C377.552,63.617 378.725,62.835 379.147,61.267 C379.327,60.746 379.417,58.982 379.417,55.979 C379.417,55.979 379.417,26.697 379.417,26.697 C379.417,25.130 379.149,24.053 378.613,23.465 C378.078,22.878 377.065,22.584 375.577,22.584 C374.565,22.584 373.909,22.584 373.612,22.584 C373.433,22.584 373.194,22.584 372.898,22.584 C372.599,22.584 372.390,22.584 372.272,22.584 C371.319,22.584 370.844,22.159 370.844,21.307 C370.844,20.458 371.464,20.031 372.708,20.031 C372.708,20.031 373.774,20.031 373.774,20.031 C373.774,20.031 375.105,20.424 375.105,20.424 C375.283,20.424 375.520,20.424 375.816,20.424 C376.171,20.424 376.408,20.424 376.526,20.424 C376.941,20.424 377.710,20.326 378.835,20.129 C379.013,20.129 379.249,20.097 379.546,20.031 C379.901,20.031 380.138,20.031 380.256,20.031 C381.321,20.031 381.854,20.783 381.854,22.284 C381.854,22.284 381.854,22.970 381.854,22.970 C381.854,23.427 381.854,24.081 381.854,24.929 C381.854,24.929 381.854,56.272 381.854,56.272 C381.854,59.080 381.884,60.648 381.944,60.973 C382.245,62.737 383.177,63.617 384.742,63.617 C385.403,63.617 385.945,63.617 386.367,63.617 C386.367,63.617 387.269,63.617 387.269,63.617 C388.713,63.617 389.435,64.044 389.435,64.893 C389.435,65.745 388.863,66.170 387.720,66.170 ZM379.688,12.767 C377.883,12.767 376.981,11.589 376.981,9.233 C376.981,6.877 377.942,5.699 379.869,5.699 C381.733,5.699 382.666,6.812 382.666,9.037 C382.666,11.524 381.674,12.767 379.688,12.767 ZM333.571,40.843 C337.842,41.628 340.669,42.413 342.054,43.199 C345.123,45.031 346.657,48.303 346.657,53.015 C346.657,57.138 345.478,60.525 343.120,63.175 C340.763,65.826 337.793,67.151 334.211,67.151 C329.555,67.151 326.062,64.697 323.733,59.789 C323.733,59.789 323.733,63.912 323.733,63.912 C323.733,63.912 323.733,64.697 323.733,64.697 C323.733,66.136 323.282,66.857 322.380,66.857 C321.536,66.857 321.116,66.202 321.116,64.893 C321.116,63.781 321.221,62.129 321.432,59.936 C321.642,57.744 321.748,56.092 321.748,54.979 C321.748,53.540 321.663,52.132 321.496,50.757 C321.496,50.757 321.116,47.714 321.116,47.714 C321.116,47.518 321.116,47.223 321.116,46.831 C321.116,46.504 321.116,46.275 321.116,46.144 C321.116,44.835 321.522,44.180 322.337,44.180 C323.268,44.180 323.733,45.064 323.733,46.831 C323.733,47.355 323.733,47.748 323.733,48.009 C323.733,48.009 323.733,49.776 323.733,49.776 C323.733,50.038 323.733,50.431 323.733,50.954 C323.733,55.143 324.687,58.513 326.596,61.065 C328.504,63.617 331.038,64.893 334.200,64.893 C337.003,64.893 339.344,63.814 341.222,61.654 C343.101,59.494 344.040,56.811 344.040,53.604 C344.040,50.398 343.273,48.091 341.738,46.683 C340.204,45.277 337.451,44.278 333.480,43.689 C329.208,43.100 326.215,41.971 324.501,40.303 C322.786,38.634 321.928,36.000 321.928,32.400 C321.928,28.539 322.980,25.349 325.087,22.829 C327.193,20.310 329.870,19.050 333.119,19.050 C337.632,19.050 340.820,21.636 342.686,26.805 C342.686,25.430 342.625,23.992 342.505,22.485 C342.445,22.225 342.415,21.832 342.415,21.307 C342.415,20.195 342.835,19.639 343.679,19.639 C344.401,19.639 344.762,20.195 344.762,21.307 C344.762,21.307 344.762,22.485 344.762,22.485 C344.640,25.430 344.581,27.722 344.581,29.357 C344.581,29.357 344.581,32.891 344.581,32.891 C344.640,34.462 344.701,35.509 344.762,36.032 C344.762,36.032 344.762,37.112 344.762,37.112 C344.762,38.290 344.385,38.879 343.632,38.879 C342.820,38.879 342.415,38.226 342.415,36.916 C342.415,36.916 342.415,35.443 342.415,35.443 C342.415,35.443 342.415,34.854 342.415,34.854 C342.415,30.667 341.599,27.378 339.966,24.989 C338.333,22.600 336.065,21.406 333.163,21.406 C330.684,21.406 328.613,22.404 326.950,24.400 C325.286,26.397 324.455,28.900 324.455,31.909 C324.455,34.790 325.087,36.835 326.351,38.045 C327.614,39.256 330.020,40.189 333.571,40.843 ZM280.955,40.843 C285.227,41.628 288.054,42.413 289.439,43.199 C292.507,45.031 294.042,48.303 294.042,53.015 C294.042,57.138 292.863,60.525 290.505,63.175 C288.147,65.826 285.177,67.151 281.596,67.151 C276.939,67.151 273.446,64.697 271.118,59.789 C271.118,59.789 271.118,63.912 271.118,63.912 C271.118,63.912 271.118,64.697 271.118,64.697 C271.118,66.136 270.667,66.857 269.764,66.857 C268.921,66.857 268.501,66.202 268.501,64.893 C268.501,63.781 268.605,62.129 268.817,59.936 C269.027,57.744 269.133,56.092 269.133,54.979 C269.133,53.540 269.048,52.132 268.880,50.757 C268.880,50.757 268.501,47.714 268.501,47.714 C268.501,47.518 268.501,47.223 268.501,46.831 C268.501,46.504 268.501,46.275 268.501,46.144 C268.501,44.835 268.907,44.180 269.722,44.180 C270.653,44.180 271.118,45.064 271.118,46.831 C271.118,47.355 271.118,47.748 271.118,48.009 C271.118,48.009 271.118,49.776 271.118,49.776 C271.118,50.038 271.118,50.431 271.118,50.954 C271.118,55.143 272.071,58.513 273.981,61.065 C275.889,63.617 278.423,64.893 281.584,64.893 C284.388,64.893 286.729,63.814 288.607,61.654 C290.485,59.494 291.424,56.811 291.424,53.604 C291.424,50.398 290.657,48.091 289.123,46.683 C287.589,45.277 284.836,44.278 280.865,43.689 C276.592,43.100 273.600,41.971 271.885,40.303 C270.171,38.634 269.313,36.000 269.313,32.400 C269.313,28.539 270.365,25.349 272.472,22.829 C274.577,20.310 277.255,19.050 280.504,19.050 C285.017,19.050 288.205,21.636 290.071,26.805 C290.071,25.430 290.010,23.992 289.890,22.485 C289.829,22.225 289.800,21.832 289.800,21.307 C289.800,20.195 290.220,19.639 291.063,19.639 C291.785,19.639 292.146,20.195 292.146,21.307 C292.146,21.307 292.146,22.485 292.146,22.485 C292.025,25.430 291.966,27.722 291.966,29.357 C291.966,29.357 291.966,32.891 291.966,32.891 C292.025,34.462 292.086,35.509 292.146,36.032 C292.146,36.032 292.146,37.112 292.146,37.112 C292.146,38.290 291.770,38.879 291.017,38.879 C290.205,38.879 289.800,38.226 289.800,36.916 C289.800,36.916 289.800,35.443 289.800,35.443 C289.800,35.443 289.800,34.854 289.800,34.854 C289.800,30.667 288.983,27.378 287.350,24.989 C285.717,22.600 283.450,21.406 280.548,21.406 C278.069,21.406 275.997,22.404 274.335,24.400 C272.671,26.397 271.840,28.900 271.840,31.909 C271.840,34.790 272.472,36.835 273.735,38.045 C274.999,39.256 277.405,40.189 280.955,40.843 ZM219.023,59.249 C221.234,63.013 224.308,64.893 228.246,64.893 C230.730,64.893 232.911,64.044 234.790,62.341 C236.668,60.640 237.969,58.284 238.697,55.273 C238.999,54.161 239.241,52.623 239.425,50.659 C239.545,49.481 239.969,48.892 240.697,48.892 C241.544,48.892 241.969,49.481 241.969,50.659 C241.969,55.044 240.575,58.890 237.790,62.194 C235.005,65.499 231.797,67.151 228.165,67.151 C223.624,67.151 219.960,65.041 217.175,60.819 C214.390,56.598 212.998,51.020 212.998,44.082 C212.998,36.621 214.397,30.584 217.195,25.970 C219.993,21.356 223.648,19.050 228.160,19.050 C232.191,19.050 235.500,20.899 238.088,24.596 C240.674,28.294 241.969,33.055 241.969,38.879 C241.969,40.450 241.863,41.399 241.653,41.726 C241.441,42.054 240.825,42.217 239.803,42.217 C239.803,42.217 215.706,42.217 215.706,42.217 C215.706,42.217 215.706,43.689 215.706,43.689 C215.706,50.300 216.811,55.486 219.023,59.249 ZM238.442,39.763 C239.107,39.698 239.442,39.338 239.442,38.683 C239.442,33.514 238.395,29.342 236.304,26.167 C234.211,22.993 231.469,21.406 228.074,21.406 C224.557,21.406 221.692,23.074 219.480,26.412 C217.266,29.750 216.008,34.201 215.706,39.763 C215.706,39.763 238.442,39.763 238.442,39.763 ZM189.173,66.170 C189.293,66.170 188.902,66.136 188.000,66.071 C184.088,65.745 181.863,65.581 181.321,65.581 C179.155,65.581 176.928,65.738 174.643,66.051 C174.341,66.130 173.980,66.170 173.560,66.170 C172.416,66.170 171.845,65.697 171.845,64.752 C171.845,63.996 172.326,63.617 173.289,63.617 C173.650,63.617 174.221,63.617 175.004,63.617 C175.785,63.617 176.387,63.617 176.809,63.617 C178.492,63.617 179.546,62.407 179.967,59.985 C180.087,59.266 180.148,57.335 180.148,54.193 C180.148,54.193 180.148,37.799 180.148,37.799 C180.148,31.517 179.530,27.197 178.298,24.841 C177.064,22.485 174.823,21.307 171.574,21.307 C169.408,21.307 167.468,22.060 165.753,23.565 C164.038,25.071 162.849,27.067 162.188,29.553 C161.345,32.827 160.925,37.014 160.925,42.119 C160.925,42.119 160.925,59.494 160.925,59.494 C160.925,62.243 161.989,63.617 164.119,63.617 C164.119,63.617 164.759,63.617 164.759,63.617 C164.759,63.617 166.218,63.421 166.218,63.421 C166.340,63.421 166.462,63.389 166.583,63.323 C166.765,63.323 166.887,63.323 166.949,63.323 C168.287,63.323 168.957,63.798 168.957,64.746 C168.957,65.696 168.415,66.170 167.332,66.170 C167.211,66.170 166.505,66.071 165.211,65.875 C163.917,65.679 162.278,65.581 160.293,65.581 C158.247,65.581 156.020,65.722 153.614,66.001 C153.614,66.001 152.170,66.170 152.170,66.170 C151.087,66.170 150.546,65.714 150.546,64.803 C150.546,64.013 150.966,63.617 151.809,63.617 C152.170,63.617 152.712,63.617 153.434,63.617 C154.156,63.617 154.697,63.617 155.058,63.617 C156.742,63.617 157.795,62.568 158.217,60.468 C158.398,59.615 158.488,57.812 158.488,55.057 C158.488,55.057 158.488,36.066 158.488,36.066 C158.488,26.228 155.659,21.307 150.004,21.307 C145.672,21.307 142.724,23.637 141.160,28.294 C140.257,30.984 139.806,34.428 139.806,38.625 C139.806,38.625 139.806,54.270 139.806,54.270 C139.806,58.666 139.956,61.323 140.257,62.240 C140.558,63.159 141.490,63.617 143.055,63.617 C143.656,63.617 144.123,63.617 144.454,63.617 C144.784,63.617 145.131,63.617 145.492,63.617 C145.853,63.617 146.063,63.617 146.124,63.617 C147.085,63.617 147.568,64.027 147.568,64.846 C147.568,65.729 147.056,66.170 146.033,66.170 C145.732,66.170 145.160,66.104 144.319,65.973 C142.633,65.712 141.160,65.581 139.896,65.581 C138.150,65.581 135.655,65.752 132.406,66.096 C131.923,66.145 131.442,66.170 130.962,66.170 C129.818,66.170 129.247,65.745 129.247,64.893 C129.247,64.044 129.908,63.617 131.232,63.617 C131.232,63.617 131.684,63.617 131.684,63.617 C131.684,63.617 132.767,63.617 132.767,63.617 C132.886,63.617 133.037,63.617 133.218,63.617 C133.458,63.617 133.608,63.617 133.669,63.617 C135.594,63.617 136.767,62.445 137.189,60.100 C137.309,59.450 137.369,57.397 137.369,53.945 C137.369,53.945 137.369,29.716 137.369,29.716 C137.369,27.437 137.280,25.906 137.104,25.124 C136.633,23.366 135.691,22.485 134.280,22.485 C133.866,22.485 133.455,22.519 133.043,22.584 C132.277,22.715 131.600,22.780 131.012,22.780 C129.835,22.780 129.247,22.340 129.247,21.456 C129.247,20.507 129.848,20.031 131.052,20.031 C131.052,20.031 131.774,20.031 131.774,20.031 C132.736,20.228 133.579,20.326 134.301,20.326 C135.143,20.326 135.745,20.293 136.106,20.228 C136.828,20.097 137.519,20.031 138.182,20.031 C139.265,20.031 139.806,20.817 139.806,22.387 C139.806,22.387 139.806,23.074 139.806,23.074 C139.806,23.010 139.685,23.729 139.445,25.234 C139.445,25.234 139.445,27.492 139.445,27.492 C141.911,21.864 145.461,19.050 150.095,19.050 C155.749,19.050 159.149,22.551 160.293,29.553 C162.459,22.551 166.309,19.050 171.845,19.050 C173.950,19.050 175.845,19.589 177.531,20.666 C179.214,21.743 180.387,23.131 181.050,24.829 C182.012,27.375 182.494,31.619 182.494,37.562 C182.494,37.562 182.494,58.034 182.494,58.034 C182.555,59.862 182.707,61.103 182.951,61.757 C183.376,62.997 184.257,63.617 185.597,63.617 C185.839,63.617 186.022,63.617 186.144,63.617 C186.144,63.617 187.695,63.617 187.695,63.617 C187.695,63.617 188.699,63.617 188.699,63.617 C190.098,63.617 190.797,64.044 190.797,64.893 C190.797,65.745 190.256,66.170 189.173,66.170 ZM66.592,66.890 C66.592,66.890 121.336,66.890 121.336,66.890 C121.336,66.890 121.336,68.370 121.336,68.370 C121.336,68.370 66.592,68.370 66.592,68.370 C66.592,68.370 66.592,66.890 66.592,66.890 ZM59.914,66.170 C60.033,66.170 59.643,66.136 58.740,66.071 C54.828,65.745 52.603,65.581 52.062,65.581 C49.896,65.581 47.669,65.738 45.383,66.051 C45.082,66.130 44.721,66.170 44.300,66.170 C43.157,66.170 42.586,65.697 42.586,64.752 C42.586,63.996 43.066,63.617 44.030,63.617 C44.391,63.617 44.962,63.617 45.744,63.617 C46.526,63.617 47.128,63.617 47.549,63.617 C49.233,63.617 50.286,62.407 50.708,59.985 C50.828,59.266 50.889,57.335 50.889,54.193 C50.889,54.193 50.889,37.799 50.889,37.799 C50.889,31.517 50.271,27.197 49.038,24.841 C47.805,22.485 45.564,21.307 42.315,21.307 C40.149,21.307 38.208,22.060 36.494,23.565 C34.779,25.071 33.590,27.067 32.929,29.553 C32.086,32.827 31.665,37.014 31.665,42.119 C31.665,42.119 31.665,59.494 31.665,59.494 C31.665,62.243 32.730,63.617 34.859,63.617 C34.859,63.617 35.499,63.617 35.499,63.617 C35.499,63.617 36.959,63.421 36.959,63.421 C37.080,63.421 37.203,63.389 37.324,63.323 C37.506,63.323 37.627,63.323 37.689,63.323 C39.028,63.323 39.698,63.798 39.698,64.746 C39.698,65.696 39.156,66.170 38.073,66.170 C37.952,66.170 37.245,66.071 35.952,65.875 C34.658,65.679 33.019,65.581 31.034,65.581 C28.987,65.581 26.761,65.722 24.355,66.001 C24.355,66.001 22.911,66.170 22.911,66.170 C21.828,66.170 21.287,65.714 21.287,64.803 C21.287,64.013 21.707,63.617 22.550,63.617 C22.911,63.617 23.453,63.617 24.175,63.617 C24.897,63.617 25.438,63.617 25.799,63.617 C27.483,63.617 28.536,62.568 28.958,60.468 C29.138,59.615 29.229,57.812 29.229,55.057 C29.229,55.057 29.229,36.066 29.229,36.066 C29.229,26.228 26.400,21.307 20.745,21.307 C16.413,21.307 13.464,23.637 11.901,28.294 C10.998,30.984 10.547,34.428 10.547,38.625 C10.547,38.625 10.547,54.270 10.547,54.270 C10.547,58.666 10.696,61.323 10.998,62.240 C11.298,63.159 12.231,63.617 13.796,63.617 C14.397,63.617 14.863,63.617 15.195,63.617 C15.525,63.617 15.872,63.617 16.233,63.617 C16.594,63.617 16.804,63.617 16.864,63.617 C17.826,63.617 18.308,64.027 18.308,64.846 C18.308,65.729 17.796,66.170 16.774,66.170 C16.472,66.170 15.901,66.104 15.059,65.973 C13.374,65.712 11.901,65.581 10.637,65.581 C8.891,65.581 6.395,65.752 3.146,66.096 C2.664,66.145 2.183,66.170 1.702,66.170 C0.559,66.170 -0.012,65.745 -0.012,64.893 C-0.012,64.044 0.649,63.617 1.973,63.617 C1.973,63.617 2.424,63.617 2.424,63.617 C2.424,63.617 3.507,63.617 3.507,63.617 C3.627,63.617 3.778,63.617 3.959,63.617 C4.198,63.617 4.349,63.617 4.410,63.617 C6.335,63.617 7.508,62.445 7.930,60.100 C8.049,59.450 8.110,57.397 8.110,53.945 C8.110,53.945 8.110,29.716 8.110,29.716 C8.110,27.437 8.021,25.906 7.845,25.124 C7.374,23.366 6.432,22.485 5.020,22.485 C4.607,22.485 4.195,22.519 3.784,22.584 C3.018,22.715 2.341,22.780 1.753,22.780 C0.576,22.780 -0.012,22.340 -0.012,21.456 C-0.012,20.507 0.588,20.031 1.793,20.031 C1.793,20.031 2.515,20.031 2.515,20.031 C3.476,20.228 4.320,20.326 5.042,20.326 C5.883,20.326 6.486,20.293 6.847,20.228 C7.569,20.097 8.260,20.031 8.922,20.031 C10.005,20.031 10.547,20.817 10.547,22.387 C10.547,22.387 10.547,23.074 10.547,23.074 C10.547,23.010 10.426,23.729 10.186,25.234 C10.186,25.234 10.186,27.492 10.186,27.492 C12.652,21.864 16.202,19.050 20.835,19.050 C26.490,19.050 29.890,22.551 31.034,29.553 C33.200,22.551 37.049,19.050 42.586,19.050 C44.691,19.050 46.586,19.589 48.271,20.666 C49.955,21.743 51.128,23.131 51.791,24.829 C52.753,27.375 53.235,31.619 53.235,37.562 C53.235,37.562 53.235,58.034 53.235,58.034 C53.296,59.862 53.448,61.103 53.692,61.757 C54.116,62.997 54.998,63.617 56.337,63.617 C56.580,63.617 56.763,63.617 56.885,63.617 C56.885,63.617 58.436,63.617 58.436,63.617 C58.436,63.617 59.440,63.617 59.440,63.617 C60.839,63.617 61.538,64.044 61.538,64.893 C61.538,65.745 60.997,66.170 59.914,66.170 Z" id="path-1" class="cls-2" fill-rule="evenodd"/>
</svg>
